<?xml version="1.0" encoding="utf-8"?>
<svg version="1.1" id="Calque_1" xmlns="http://www.w3.org/2000/svg" xmlns:xlink="http://www.w3.org/1999/xlink" x="0px" y="0px"
	 width="400px" height="192.442px" viewBox="0 0 400 192.442" enable-background="new 0 0 400 192.442" xml:space="preserve">
<g>
	<g>
		<path fill="#E4E4E4" d="M365.55,146.778c-0.375-1.729-0.605-4.063-0.605-6.398c0-3.644,0.512-6.493,2.428-8.548
			c1.635-1.868,4.25-2.708,6.912-2.708c3.41,0,5.791,1.027,7.566,2.663c2.055,1.96,2.99,5.138,2.99,7.659c0,0.42,0,0.841,0,1.215
			h11.723v6.118H365.55z M379.843,140.66c0.092-0.28,0.092-0.607,0.092-0.981c0-3.082-2.193-4.483-5.135-4.483
			c-2.758,0-4.906,1.121-4.906,3.97c0,0.56,0.094,1.121,0.234,1.495H379.843z"/>
		<path fill="#E4E4E4" d="M365.083,118.382h31.48v6.119h-31.48V118.382z"/>
		<path fill="#E4E4E4" d="M389.371,106.988l7.193,1.401v5.932l-31.48-6.819v-7.333l31.48-6.118v5.932l-7.193,1.354V106.988z
			 M384.607,101.897l-6.586,1.028c-1.914,0.327-5.045,0.747-7.145,1.027v0.141c2.1,0.327,5.371,0.794,7.191,1.121l6.539,1.167
			V101.897z"/>
		<path fill="#E4E4E4" d="M396.564,89.663h-31.48v-5.605l12.33-4.857c2.43-0.934,6.492-2.475,9.203-3.362v-0.094
			c-3.318,0.188-8.783,0.607-14.574,0.607h-6.959V70.98h31.48v5.605l-11.957,4.811c-2.662,1.028-6.633,2.476-9.48,3.176v0.093
			c3.176-0.139,8.031-0.373,14.338-0.373h7.1V89.663z"/>
		<path fill="#E4E4E4" d="M380.263,46.042c11.863,0,16.676,4.203,16.676,10.182c0,7.146-7.568,9.948-16.209,9.948
			c-8.594,0-16.02-3.409-16.02-10.369C364.71,48.19,373.07,46.042,380.263,46.042z M380.824,59.82c7.146,0,10.789-1.354,10.789-3.83
			c0-2.569-4.67-3.549-11.068-3.549c-5.514,0-10.51,0.841-10.51,3.596C370.035,58.466,374.05,59.82,380.824,59.82z"/>
	</g>
	<g>
		<path fill="#E4E4E4" d="M223.084,192.278c-0.281-1.437-0.456-3.258-0.456-5.01c0-2.522,0.35-4.766,1.752-6.307
			c1.296-1.437,2.873-1.857,4.904-1.857c2.522,0,4.801,1.227,5.922,3.644h0.071c0.63-1.611,2.135-2.417,4.659-2.872
			c2.628-0.456,5.535-1.087,6.411-1.507v4.8c-0.666,0.28-3.048,0.806-5.641,1.156c-2.942,0.421-3.785,1.156-3.785,2.698v0.665h9.426
			v4.59H223.084z M233.384,187.688v-0.806c0-1.996-1.611-3.153-3.679-3.153c-1.998,0-3.434,0.807-3.504,2.873
			c0,0.386,0.035,0.841,0.141,1.086H233.384z"/>
		<path fill="#E4E4E4" d="M234.12,161.169c8.899,0,12.509,3.154,12.509,7.639c0,5.361-5.676,7.463-12.158,7.463
			c-6.448,0-12.018-2.559-12.018-7.778C222.453,162.781,228.724,161.169,234.12,161.169z M234.541,171.505
			c5.362,0,8.094-1.016,8.094-2.873c0-1.928-3.504-2.662-8.304-2.662c-4.135,0-7.882,0.631-7.882,2.697
			C226.448,170.49,229.459,171.505,234.541,171.505z"/>
		<path fill="#E4E4E4" d="M222.732,157.567v-4.589h19.726v-6.063h3.89v10.651H222.732z"/>
		<path fill="#E4E4E4" d="M222.732,143.556v-4.588h19.726v-6.063h3.89v10.65H222.732z"/>
		<path fill="#E4E4E4" d="M235.976,119.562v5.396h6.377v-6.097h3.995v10.687h-23.615v-10.266h3.995v5.676h5.431v-5.396H235.976z"/>
		<path fill="#E4E4E4" d="M223.083,115.046c-0.279-1.437-0.454-3.258-0.454-5.01c0-2.523,0.35-4.765,1.752-6.306
			c1.296-1.437,2.873-1.858,4.904-1.858c2.522,0,4.801,1.227,5.922,3.644h0.071c0.63-1.612,2.135-2.417,4.659-2.872
			c2.628-0.457,5.535-1.087,6.411-1.507v4.8c-0.666,0.28-3.048,0.806-5.641,1.156c-2.942,0.42-3.785,1.156-3.785,2.697v0.667h9.426
			v4.589H223.083z M233.384,110.457v-0.807c0-1.996-1.611-3.152-3.679-3.152c-1.998,0-3.434,0.806-3.504,2.874
			c0,0.385,0.035,0.84,0.141,1.086H233.384z"/>
		<path fill="#E4E4E4" d="M241.652,98.407c0.526-0.945,0.913-2.558,0.913-3.889c0-2.172-1.122-3.223-2.662-3.223
			c-1.718,0-2.559,1.051-3.856,3.048c-1.96,3.224-4.448,4.45-6.586,4.45c-3.783,0-6.938-2.523-6.938-7.463
			c0-1.542,0.422-3.014,0.842-3.714l3.958,0.735c-0.419,0.667-0.806,1.682-0.806,3.013c0,1.963,1.192,2.908,2.454,2.908
			c1.4,0,2.138-0.7,3.679-3.258c1.892-3.119,4.273-4.275,6.761-4.275c4.31,0,7.148,3.188,7.148,7.813
			c0,1.892-0.492,3.749-0.946,4.52L241.652,98.407z"/>
	</g>
	<g>
		<path fill="#E4E4E4" d="M28.601,176.978c0.352,0.738,0.623,2.18,0.623,3.971c0,6.694-5.527,9.887-12.962,9.887
			c-9.887,0-13.741-5.489-13.741-10.588c0-1.791,0.35-3.036,0.7-3.543l4.283,0.856c-0.273,0.584-0.508,1.245-0.508,2.375
			c0,2.881,2.492,5.488,8.993,5.488c6.267,0,8.72-2.375,8.72-5.488c0-0.856-0.195-1.829-0.389-2.453L28.601,176.978z"/>
		<path fill="#E4E4E4" d="M2.755,168.3h10.508v-5.332H2.755v-5.1h26.236v5.1H18.013v5.332h10.978v5.1H2.755V168.3z"/>
		<path fill="#E4E4E4" d="M22.996,148.453l5.995,1.167v4.944L2.755,148.88v-6.111l26.236-5.1v4.944l-5.995,1.128V148.453z
			 M19.025,144.209l-5.487,0.856c-1.597,0.272-4.206,0.621-5.957,0.855v0.117c1.751,0.272,4.476,0.662,5.994,0.934l5.45,0.975
			V144.209z"/>
		<path fill="#E4E4E4" d="M28.991,134.055H2.755v-4.671l10.275-4.049c2.025-0.779,5.412-2.063,7.669-2.803v-0.078
			c-2.765,0.156-7.318,0.507-12.145,0.507h-5.8v-4.478h26.236v4.672l-9.966,4.009c-2.219,0.856-5.527,2.063-7.9,2.647v0.078
			c2.646-0.117,6.694-0.312,11.949-0.312h5.917V134.055z"/>
		<path fill="#E4E4E4" d="M7.463,110.353v4.631H2.755v-14.402h4.708v4.671h21.527v5.1H7.463z"/>
	</g>
	<g>
		<path fill="#E4E4E4" d="M26.47,89.934c-1.75,0.726-5.491,1.448-8.447,1.448c-4.646,0-8.146-1.327-10.86-4.042
			c-3.5-3.379-5.369-9.413-5.25-16.412c0.181-14.782,8.628-20.936,17.257-20.936c3.077,0,5.37,0.604,6.636,1.207l-1.388,6.818
			c-1.146-0.604-2.654-0.906-4.646-0.906c-5.368,0-9.652,3.681-9.652,14.299c0,9.775,3.801,13.274,7.48,13.274
			c0.724,0,1.269-0.061,1.57-0.181v-9.833h-3.621v-6.458h10.92V89.934z"/>
		<path fill="#E4E4E4" d="M41.246,50.354v26.427c0,5.973,1.809,7.784,3.861,7.784c2.292,0,3.921-1.629,3.921-7.784V50.354h7.904
			v25.04c0,10.438-3.921,16.109-11.766,16.109c-8.507,0-11.826-5.853-11.826-16.05V50.354H41.246z"/>
		<path fill="#E4E4E4" d="M72.795,50.354v40.667H64.89V50.354H72.795z"/>
		<path fill="#E4E4E4" d="M85.459,57.655h-7.179v-7.301h22.324v7.301h-7.24v33.366h-7.905V57.655z"/>
		<path fill="#E4E4E4" d="M110.434,81.728l-1.809,9.293h-7.663l8.808-40.667h9.474l7.903,40.667h-7.662l-1.75-9.293H110.434z
			 M117.011,75.575l-1.328-8.508c-0.422-2.472-0.965-6.516-1.327-9.229h-0.181c-0.423,2.713-1.026,6.938-1.448,9.291l-1.508,8.447
			H117.011z"/>
		<path fill="#E4E4E4" d="M132.816,50.959c2.474-0.483,5.611-0.785,8.626-0.785c4.345,0,8.206,0.604,10.861,3.018
			c2.474,2.233,3.198,4.947,3.198,8.447c0,4.344-2.111,8.267-6.275,10.197v0.12c2.775,1.085,4.164,3.681,4.947,8.025
			c0.785,4.524,1.871,9.532,2.595,11.041h-8.266c-0.483-1.146-1.387-5.249-1.991-9.715c-0.724-5.068-1.991-6.516-4.646-6.516h-1.147
			v16.23h-7.903V50.959z M140.719,68.696h1.388c3.439,0,5.43-2.774,5.43-6.333c0-3.439-1.387-5.914-4.947-6.034
			c-0.664,0-1.448,0.061-1.871,0.242V68.696z"/>
		<path fill="#E4E4E4" d="M179.569,73.162h-9.29v10.98h10.498v6.879h-18.402V50.354h17.677v6.879h-9.772v9.351h9.29V73.162z"/>
	</g>
	<g>
		<path fill="#E4E4E4" d="M211.416,0.389h6.166v22.323c0,9.437-4.391,10.847-8.874,10.847c-1.262,0-2.382-0.195-3.083-0.486
			l0.513-5.351c0.607,0.195,1.214,0.243,2.009,0.243c1.774,0,3.269-0.728,3.269-4.96V0.389z"/>
	</g>
	<g>
		<path fill="#E4E4E4" d="M228.51,25.681l-1.402,7.489h-5.932l6.82-32.781h7.333l6.119,32.781h-5.932l-1.354-7.489H228.51z
			 M233.601,20.719l-1.028-6.858c-0.327-1.993-0.747-5.253-1.027-7.441h-0.141c-0.327,2.188-0.794,5.594-1.121,7.491l-1.168,6.809
			H233.601z"/>
	</g>
	<g>
		<path fill="#E4E4E4" d="M249.246,33.17l-7.053-32.781h6.773l2.241,14.154c0.561,3.5,1.215,7.539,1.636,11.381h0.092
			c0.421-3.892,0.935-7.832,1.495-11.527l2.148-14.008h6.727l-7.193,32.781H249.246z"/>
	</g>
	<g>
		<path fill="#E4E4E4" d="M271.149,25.681l-1.402,7.489h-5.931l6.818-32.781h7.333l6.118,32.781h-5.932l-1.354-7.489H271.149z
			 M276.239,20.719l-1.028-6.858c-0.327-1.993-0.747-5.253-1.027-7.441h-0.141c-0.327,2.188-0.793,5.594-1.12,7.491l-1.167,6.809
			H276.239z"/>
		<path fill="#E4E4E4" d="M287.728,26.651c1.261,0.73,3.409,1.266,5.185,1.266c2.896,0,4.295-1.556,4.295-3.696
			c0-2.383-1.399-3.551-4.063-5.351c-4.298-2.724-5.932-6.176-5.932-9.142c0-5.253,3.362-9.631,9.948-9.631
			c2.056,0,4.017,0.583,4.951,1.168l-0.98,5.496c-0.887-0.585-2.242-1.119-4.018-1.119c-2.615,0-3.877,1.653-3.877,3.403
			c0,1.946,0.935,2.968,4.345,5.108c4.157,2.626,5.698,5.933,5.698,9.386c0,5.982-4.25,9.923-10.415,9.923
			c-2.523,0-4.998-0.682-6.025-1.313L287.728,26.651z"/>
		<path fill="#E4E4E4" d="M322.849,32.683c-0.887,0.437-2.615,0.779-4.764,0.779c-8.033,0-11.864-6.907-11.864-16.196
			c0-12.354,6.586-17.169,12.703-17.169c2.15,0,3.646,0.439,4.252,0.876l-1.027,5.349c-0.701-0.339-1.495-0.63-2.85-0.63
			c-3.457,0-6.585,3.112-6.585,11.234c0,7.83,2.848,10.895,6.585,10.895c1.027,0,2.195-0.243,2.941-0.486L322.849,32.683z"/>
	</g>
	<g>
		<path fill="#E4E4E4" d="M327.19,0.876c1.914-0.39,4.344-0.633,6.678-0.633c3.363,0,6.353,0.487,8.408,2.433
			c1.914,1.8,2.476,3.987,2.476,6.809c0,3.502-1.635,6.662-4.857,8.219V17.8c2.148,0.876,3.223,2.968,3.83,6.468
			c0.605,3.648,1.447,7.685,2.008,8.901h-6.398c-0.374-0.923-1.074-4.232-1.541-7.831c-0.562-4.084-1.543-5.253-3.598-5.253h-0.887
			V33.17h-6.118V0.876z M333.309,15.174h1.074c2.662,0,4.203-2.237,4.203-5.106c0-2.772-1.073-4.766-3.83-4.863
			c-0.513,0-1.12,0.047-1.447,0.194V15.174z"/>
	</g>
	<g>
		<path fill="#E4E4E4" d="M356.193,0.389V33.17h-6.117V0.389H356.193z"/>
		<path fill="#E4E4E4" d="M362.589,0.876c1.729-0.39,4.064-0.633,6.398-0.633c3.645,0,6.494,0.536,8.549,2.53
			c1.867,1.703,2.707,4.426,2.707,7.198c0,3.55-1.025,6.03-2.662,7.879c-1.959,2.14-5.137,3.112-7.658,3.112
			c-0.422,0-0.842,0-1.215,0V33.17h-6.119V0.876z M368.708,15.757c0.279,0.099,0.607,0.099,0.98,0.099
			c3.082,0,4.484-2.286,4.484-5.351c0-2.87-1.121-5.106-3.971-5.106c-0.561,0-1.121,0.097-1.494,0.244V15.757z"/>
		<path fill="#E4E4E4" d="M388.275,6.274h-5.557V0.389H400v5.885h-5.605V33.17h-6.119V6.274z"/>
	</g>
	<g>
		<path fill="#BAB8B8" d="M235.152,73.015c-0.629,0.299-1.853,0.528-3.375,0.528c-5.688,0-8.401-4.696-8.401-11.014
			c0-8.401,4.664-11.676,8.997-11.676c1.522,0,2.58,0.296,3.01,0.595l-0.729,3.639c-0.497-0.232-1.058-0.432-2.018-0.432
			c-2.447,0-4.664,2.118-4.664,7.641c0,5.327,2.019,7.409,4.664,7.409c0.729,0,1.555-0.165,2.083-0.33L235.152,73.015z"/>
		<path fill="#BAB8B8" d="M238.196,51.382c1.355-0.264,3.077-0.429,4.729-0.429c2.382,0,4.499,0.331,5.955,1.653
			c1.356,1.224,1.753,2.713,1.753,4.63c0,2.381-1.158,4.532-3.44,5.591v0.067c1.521,0.595,2.282,2.016,2.713,4.399
			c0.429,2.48,1.024,5.226,1.421,6.052h-4.532c-0.264-0.629-0.759-2.876-1.09-5.324c-0.398-2.78-1.092-3.573-2.548-3.573h-0.627
			v8.897h-4.333V51.382z M242.529,61.108h0.76c1.886,0,2.977-1.522,2.977-3.474c0-1.885-0.761-3.242-2.713-3.309
			c-0.364,0-0.793,0.034-1.024,0.133V61.108z"/>
		<path fill="#BAB8B8" d="M263.833,63.556h-5.094v6.02h5.756v3.77h-10.089V51.051h9.691v3.772h-5.358v5.125h5.094V63.556z
			 M264.528,46.124l-4.036,3.738h-3.11l2.746-3.738H264.528z"/>
		<path fill="#BAB8B8" d="M271.607,68.251l-0.991,5.094h-4.201l4.829-22.294h5.193l4.332,22.294h-4.201l-0.959-5.094H271.607z
			 M275.213,64.878l-0.727-4.664c-0.232-1.357-0.53-3.573-0.729-5.061h-0.1c-0.231,1.488-0.562,3.803-0.794,5.093l-0.827,4.631
			H275.213z"/>
		<path fill="#BAB8B8" d="M284.674,55.054h-3.935v-4.002h12.238v4.002h-3.968v18.292h-4.335V55.054z"/>
		<path fill="#BAB8B8" d="M300.255,51.051v22.294h-4.333V51.051H300.255z"/>
		<path fill="#BAB8B8" d="M307.896,73.346l-4.995-22.294h4.797l1.588,9.625c0.396,2.384,0.86,5.128,1.157,7.74h0.066
			c0.298-2.645,0.661-5.325,1.059-7.838l1.521-9.527h4.763l-5.094,22.294H307.896z"/>
		<path fill="#BAB8B8" d="M324.735,51.051v22.294h-4.334V51.051H324.735z"/>
		<path fill="#BAB8B8" d="M331.681,55.054h-3.936v-4.002h12.238v4.002h-3.97v18.292h-4.333V55.054z"/>
		<path fill="#BAB8B8" d="M352.355,63.556h-5.093v6.02h5.755v3.77h-10.089V51.051h9.691v3.772h-5.357v5.125h5.093V63.556z
			 M353.05,46.124l-4.035,3.738h-3.11l2.747-3.738H353.05z"/>
	</g>
	<g>
		<path fill="#E4E4E4" d="M191.037,62.526c-0.315-0.665-0.561-1.962-0.561-3.573c0-6.026,4.978-8.899,11.668-8.899
			c8.9,0,12.37,4.94,12.37,9.53c0,1.611-0.316,2.733-0.631,3.188L210.029,62c0.246-0.525,0.454-1.121,0.454-2.137
			c0-2.593-2.242-4.94-8.093-4.94c-5.64,0-7.849,2.137-7.849,4.94c0,0.771,0.175,1.647,0.35,2.208L191.037,62.526z"/>
		<path fill="#E4E4E4" d="M214.303,70.334h-23.616v-4.589h23.616V70.334z"/>
		<path fill="#E4E4E4" d="M190.687,75.132h23.616v4.204l-9.25,3.644c-1.821,0.7-4.869,1.856-6.902,2.523v0.07
			c2.487-0.141,6.586-0.457,10.932-0.457h5.22v4.03h-23.616v-4.204l8.97-3.609c1.998-0.771,4.975-1.858,7.114-2.383v-0.07
			c-2.383,0.105-6.026,0.28-10.758,0.28h-5.325V75.132z"/>
		<path fill="#E4E4E4" d="M201.06,103.891v-5.396h-6.378v6.097h-3.995V93.905h23.616v10.266h-3.994v-5.676h-5.431v5.396H201.06z
			 M219.523,104.627l-3.958-4.275v-3.293l3.958,2.908V104.627z"/>
		<path fill="#E4E4E4" d="M198.956,122.841c2.243-0.104,5.291-0.28,7.814-0.209v-0.106c-2.524-0.42-5.431-1.05-7.254-1.506
			l-8.442-2.032v-3.258l8.302-1.962c1.893-0.456,4.836-1.087,7.395-1.437v-0.105c-2.559-0.07-5.537-0.21-7.884-0.351l-8.199-0.385
			v-3.959l23.616,1.717v4.835l-8.549,1.892c-2.978,0.665-5.606,1.261-8.269,1.682v0.069c2.628,0.351,5.291,0.876,8.269,1.507
			l8.549,1.856v4.835l-23.616,1.437v-4.099L198.956,122.841z"/>
		<path fill="#E4E4E4" d="M196.083,135.167l-5.396-1.05v-4.45l23.616,5.116v5.5l-23.616,4.59v-4.449l5.396-1.017V135.167z
			 M199.657,138.986l4.941-0.771c1.438-0.245,3.784-0.561,5.361-0.771v-0.104c-1.577-0.247-4.03-0.597-5.397-0.841l-4.905-0.877
			V138.986z"/>
	</g>
	<g>
		<path fill="#E4E4E4" d="M257.149,158.442c1.871-0.405,4.401-0.657,6.931-0.657c3.947,0,7.032,0.557,9.26,2.63
			c2.023,1.771,2.934,4.604,2.934,7.489c0,3.693-1.114,6.273-2.883,8.195c-2.126,2.228-5.566,3.238-8.298,3.238
			c-0.457,0-0.912,0-1.315,0v12.7h-6.627V158.442z M263.777,173.923c0.303,0.104,0.658,0.104,1.063,0.104
			c3.339,0,4.857-2.38,4.857-5.566c0-2.985-1.213-5.313-4.301-5.313c-0.607,0-1.215,0.1-1.619,0.252V173.923z"/>
		<path fill="#E4E4E4" d="M287.909,157.936v13.661h6.933v-13.661h6.628v34.102h-6.628V177.77h-6.933v14.268h-6.629v-34.102H287.909z
			"/>
		<path fill="#E4E4E4" d="M328.436,174.38c0,12.852-4.553,18.062-11.029,18.062c-7.741,0-10.777-8.196-10.777-17.557
			c0-9.31,3.692-17.354,11.232-17.354C326.107,157.531,328.436,166.588,328.436,174.38z M313.51,174.986
			c0,7.742,1.468,11.688,4.149,11.688c2.781,0,3.845-5.06,3.845-11.99c0-5.972-0.911-11.386-3.896-11.386
			C314.978,163.298,313.51,167.651,313.51,174.986z"/>
		<path fill="#E4E4E4" d="M336.984,164.057h-6.02v-6.121h18.72v6.121h-6.072v27.98h-6.629V164.057z"/>
		<path fill="#E4E4E4" d="M373.666,174.38c0,12.852-4.553,18.062-11.029,18.062c-7.742,0-10.779-8.196-10.779-17.557
			c0-9.31,3.693-17.354,11.234-17.354C371.337,157.531,373.666,166.588,373.666,174.38z M358.74,174.986
			c0,7.742,1.467,11.688,4.148,11.688c2.781,0,3.846-5.06,3.846-11.99c0-5.972-0.912-11.386-3.896-11.386
			C360.207,163.298,358.74,167.651,358.74,174.986z"/>
		<g>
			<path fill="#E4E4E4" d="M378.169,185.257c1.365,0.76,3.693,1.314,5.617,1.314c3.135,0,4.652-1.619,4.652-3.844
				c0-2.48-1.518-3.694-4.4-5.566c-4.654-2.834-6.426-6.424-6.426-9.511c0-5.466,3.643-10.019,10.777-10.019
				c2.225,0,4.352,0.606,5.363,1.215l-1.063,5.718c-0.961-0.608-2.43-1.165-4.352-1.165c-2.834,0-4.199,1.721-4.199,3.542
				c0,2.024,1.01,3.087,4.705,5.313c4.504,2.73,6.174,6.172,6.174,9.764c0,6.224-4.605,10.322-11.283,10.322
				c-2.732,0-5.414-0.708-6.527-1.366L378.169,185.257z"/>
		</g>
	</g>
	<g>
		<path fill="#E4E4E4" d="M42.366,126.48c1.479-0.333,3.401-0.481,5.508-0.481c2.33,0,4.583,0.297,6.322,1.775
			c1.33,1.11,1.885,2.772,1.885,4.509c0,2.217-1.146,4.363-3.623,5.435v0.147c2.884,0.814,4.437,3.217,4.437,5.952
			c0,2.069-0.666,3.66-1.85,4.878c-1.478,1.627-3.991,2.514-8.169,2.514c-1.848,0-3.4-0.109-4.509-0.258V126.48z M47.208,136.351
			h1.036c1.736,0,3.067-1.479,3.067-3.512c0-1.812-0.85-3.215-2.846-3.215c-0.518,0-0.961,0.036-1.257,0.146V136.351z
			 M47.208,147.405c0.296,0.074,0.629,0.074,1.072,0.074c1.959,0,3.585-1.185,3.585-3.734c0-2.478-1.701-3.771-3.622-3.808h-1.036
			V147.405z"/>
		<path fill="#E4E4E4" d="M60.964,126.48C62.479,126.185,64.4,126,66.249,126c2.661,0,5.027,0.371,6.654,1.85
			c1.517,1.368,1.96,3.031,1.96,5.174c0,2.663-1.293,5.064-3.845,6.249v0.073c1.701,0.666,2.551,2.254,3.031,4.916
			c0.481,2.773,1.146,5.842,1.589,6.766h-5.064c-0.295-0.703-0.85-3.215-1.22-5.951c-0.444-3.105-1.219-3.992-2.845-3.992h-0.704
			v9.943h-4.841V126.48z M65.805,137.349h0.851c2.107,0,3.327-1.701,3.327-3.881c0-2.107-0.85-3.624-3.032-3.698
			c-0.406,0-0.886,0.038-1.146,0.148V137.349z"/>
		<path fill="#E4E4E4" d="M83.921,126.112v24.915H79.08v-24.915H83.921z"/>
		<path fill="#E4E4E4" d="M100.928,150.656c-0.703,0.335-2.069,0.594-3.771,0.594c-6.357,0-9.389-5.251-9.389-12.311
			c0-9.389,5.211-13.05,10.055-13.05c1.701,0,2.885,0.333,3.365,0.666l-0.813,4.066c-0.555-0.258-1.184-0.48-2.256-0.48
			c-2.734,0-5.212,2.365-5.212,8.54c0,5.951,2.255,8.279,5.212,8.279c0.814,0,1.738-0.185,2.331-0.369L100.928,150.656z"/>
		<path fill="#E4E4E4" d="M118.599,138.126c0,9.389-3.326,13.197-8.058,13.197c-5.656,0-7.874-5.99-7.874-12.83
			c0-6.8,2.699-12.678,8.207-12.678C116.9,125.815,118.599,132.432,118.599,138.126z M107.694,138.568
			c0,5.658,1.072,8.541,3.031,8.541c2.034,0,2.81-3.696,2.81-8.761c0-4.363-0.666-8.317-2.847-8.317
			C108.766,130.031,107.694,133.21,107.694,138.568z"/>
		<path fill="#E4E4E4" d="M122.41,126.112h4.842v20.812h6.396v4.104H122.41V126.112z"/>
		<path fill="#E4E4E4" d="M141.413,145.333l-1.111,5.693h-4.694l5.398-24.915h5.804l4.842,24.915h-4.694l-1.073-5.693H141.413z
			 M145.441,141.563l-0.813-5.212c-0.259-1.516-0.59-3.993-0.813-5.655h-0.11c-0.259,1.663-0.629,4.251-0.887,5.692l-0.925,5.175
			H145.441z"/>
		<path fill="#E4E4E4" d="M168.403,150.362c-1.073,0.442-3.365,0.888-5.176,0.888c-2.847,0-4.991-0.813-6.654-2.479
			c-2.145-2.069-3.291-5.766-3.216-10.055c0.109-9.056,5.286-12.827,10.572-12.827c1.886,0,3.29,0.369,4.067,0.74l-0.85,4.177
			c-0.704-0.369-1.627-0.556-2.848-0.556c-3.29,0-5.914,2.256-5.914,8.763c0,5.988,2.329,8.131,4.583,8.131
			c0.444,0,0.775-0.035,0.961-0.109v-6.026h-2.219v-3.954h6.693V150.362z"/>
		<path fill="#E4E4E4" d="M183.303,140.085h-5.693v6.727h6.433v4.215h-11.275v-24.915h10.832v4.213h-5.989v5.729h5.693V140.085z"/>
	</g>
	<g>
		<path fill="#E4E4E4" d="M265.995,111.592c-0.592,0.281-1.745,0.498-3.178,0.498c-5.357,0-7.911-4.422-7.911-10.372
			c0-7.911,4.392-10.995,8.472-10.995c1.432,0,2.429,0.281,2.834,0.56l-0.685,3.427c-0.468-0.217-0.998-0.405-1.901-0.405
			c-2.304,0-4.392,1.993-4.392,7.196c0,5.013,1.901,6.976,4.392,6.976c0.685,0,1.465-0.156,1.963-0.312L265.995,111.592z"/>
		<path fill="#E4E4E4" d="M272.811,90.911v13.642c0,3.083,0.935,4.018,1.994,4.018c1.183,0,2.023-0.84,2.023-4.018V90.911h4.082
			v12.926c0,5.388-2.025,8.316-6.075,8.316c-4.392,0-6.104-3.021-6.104-8.285V90.911H272.811z"/>
		<path fill="#E4E4E4" d="M289.094,90.911v20.993h-4.08V90.911H289.094z"/>
		<path fill="#E4E4E4" d="M292.89,107.73c0.842,0.467,2.273,0.809,3.458,0.809c1.932,0,2.864-0.997,2.864-2.367
			c0-1.526-0.933-2.273-2.709-3.427c-2.866-1.745-3.956-3.955-3.956-5.855c0-3.363,2.242-6.168,6.635-6.168
			c1.371,0,2.679,0.375,3.301,0.749l-0.653,3.52c-0.592-0.375-1.495-0.717-2.679-0.717c-1.744,0-2.585,1.059-2.585,2.18
			c0,1.247,0.622,1.9,2.896,3.27c2.772,1.682,3.801,3.8,3.801,6.013c0,3.831-2.834,6.353-6.945,6.353
			c-1.683,0-3.333-0.435-4.018-0.84L292.89,107.73z"/>
		<path fill="#E4E4E4" d="M310.327,90.911v20.993h-4.08V90.911H310.327z"/>
		<path fill="#E4E4E4" d="M314.59,111.904V90.911h3.738l3.239,8.223c0.623,1.619,1.651,4.329,2.243,6.136h0.063
			c-0.125-2.211-0.405-5.856-0.405-9.718v-4.641h3.582v20.993h-3.738l-3.207-7.974c-0.687-1.775-1.651-4.422-2.119-6.322h-0.062
			c0.092,2.117,0.248,5.357,0.248,9.562v4.734H314.59z"/>
		<path fill="#E4E4E4" d="M340.156,102.683h-4.797v5.668h5.42v3.552h-9.5V90.911h9.126v3.55h-5.046v4.829h4.797V102.683z"/>
		<path fill="#E4E4E4" d="M344.201,91.222c1.276-0.251,2.896-0.405,4.453-0.405c2.244,0,4.236,0.31,5.607,1.557
			c1.277,1.153,1.65,2.554,1.65,4.361c0,2.242-1.09,4.266-3.238,5.264v0.063c1.434,0.56,2.148,1.898,2.555,4.142
			c0.404,2.335,0.965,4.92,1.338,5.7h-4.268c-0.248-0.591-0.717-2.71-1.027-5.015c-0.373-2.617-1.027-3.364-2.396-3.364h-0.594
			v8.379h-4.08V91.222z M348.281,100.378h0.717c1.775,0,2.803-1.433,2.803-3.271c0-1.775-0.715-3.052-2.553-3.115
			c-0.344,0-0.748,0.033-0.967,0.126V100.378z"/>
	</g>
	<g>
		<path fill="#BAB8B8" d="M257.729,137.217l-0.701,3.593h-2.964l3.408-15.73h3.665l3.057,15.73h-2.964l-0.676-3.593H257.729z
			 M260.271,134.835l-0.513-3.291c-0.164-0.956-0.373-2.52-0.514-3.571h-0.07c-0.164,1.051-0.396,2.686-0.56,3.596l-0.583,3.266
			H260.271z"/>
		<path fill="#BAB8B8" d="M266.393,125.314c0.77-0.187,1.889-0.302,3.103-0.302c1.984,0,3.361,0.465,4.366,1.398
			c1.353,1.215,2.053,3.292,2.053,6.349c0,3.174-0.817,5.438-2.194,6.65c-1.05,1.027-2.614,1.518-4.808,1.518
			c-0.957,0-1.914-0.094-2.52-0.164V125.314z M269.448,138.384c0.141,0.045,0.374,0.045,0.538,0.045
			c1.471,0,2.754-1.445,2.754-5.786c0-3.221-0.84-5.182-2.684-5.182c-0.209,0-0.42,0-0.607,0.07V138.384z"/>
		<path fill="#BAB8B8" d="M280.448,137.217l-0.7,3.593h-2.965l3.409-15.73h3.664l3.058,15.73h-2.964l-0.678-3.593H280.448z
			 M282.991,134.835l-0.513-3.291c-0.164-0.956-0.373-2.52-0.514-3.571h-0.07c-0.163,1.051-0.396,2.686-0.561,3.596l-0.583,3.266
			H282.991z"/>
		<path fill="#BAB8B8" d="M289.09,125.314c0.862-0.187,2.029-0.302,3.197-0.302c1.82,0,3.243,0.257,4.271,1.212
			c0.934,0.817,1.353,2.125,1.353,3.455c0,1.703-0.512,2.894-1.33,3.78c-0.979,1.028-2.567,1.494-3.826,1.494
			c-0.211,0-0.421,0-0.607,0v5.857h-3.057V125.314z M292.146,132.455c0.141,0.047,0.305,0.047,0.489,0.047
			c1.541,0,2.241-1.096,2.241-2.567c0-1.378-0.56-2.451-1.983-2.451c-0.28,0-0.561,0.047-0.747,0.118V132.455z"/>
		<path fill="#BAB8B8" d="M301.931,127.904h-2.777v-2.824h8.635v2.824h-2.801v12.906h-3.057V127.904z"/>
		<path fill="#BAB8B8" d="M311.598,137.217l-0.7,3.593h-2.964l3.408-15.73h3.663l3.058,15.73h-2.964l-0.677-3.593H311.598z
			 M314.142,134.835l-0.513-3.291c-0.163-0.956-0.374-2.52-0.515-3.571h-0.068c-0.164,1.051-0.398,2.686-0.562,3.596l-0.584,3.266
			H314.142z"/>
		<path fill="#BAB8B8" d="M320.799,127.904h-2.778v-2.824h8.636v2.824h-2.801v12.906h-3.057V127.904z"/>
		<path fill="#BAB8B8" d="M331.796,125.08v15.73h-3.057v-15.73H331.796z"/>
		<path fill="#BAB8B8" d="M344.284,132.666c0,5.927-2.1,8.332-5.087,8.332c-3.571,0-4.971-3.78-4.971-8.098
			c0-4.295,1.702-8.006,5.181-8.006C343.212,124.894,344.284,129.073,344.284,132.666z M337.401,132.946
			c0,3.57,0.676,5.392,1.913,5.392c1.283,0,1.772-2.334,1.772-5.531c0-2.755-0.42-5.252-1.797-5.252
			C338.077,127.555,337.401,129.561,337.401,132.946z"/>
		<path fill="#BAB8B8" d="M346.694,140.81v-15.73h2.801l2.428,6.163c0.467,1.212,1.234,3.244,1.678,4.597h0.047
			c-0.092-1.657-0.303-4.387-0.303-7.282v-3.478h2.686v15.73h-2.801l-2.404-5.975c-0.514-1.33-1.238-3.313-1.586-4.737h-0.047
			c0.068,1.587,0.186,4.014,0.186,7.165v3.547H346.694z"/>
	</g>
	<g>
		<path fill="#BAB8B8" d="M103.091,108.185h-3.896v4.603h4.402v2.885h-7.716V98.62h7.412v2.885h-4.098v3.92h3.896V108.185z"/>
		<path fill="#BAB8B8" d="M116.778,109.701c-0.076-1.619-0.202-3.819-0.152-5.64h-0.077c-0.303,1.82-0.759,3.92-1.087,5.235
			l-1.467,6.098h-2.353l-1.417-5.998c-0.329-1.364-0.784-3.491-1.038-5.335h-0.075c-0.05,1.845-0.151,3.996-0.253,5.691
			l-0.279,5.919h-2.858l1.24-17.052h3.491l1.367,6.174c0.48,2.149,0.91,4.048,1.213,5.969h0.051c0.253-1.896,0.632-3.82,1.088-5.969
			l1.341-6.174h3.49l1.038,17.052h-2.96L116.778,109.701z"/>
		<path fill="#BAB8B8" d="M122.975,98.873c0.935-0.201,2.201-0.329,3.466-0.329c1.973,0,3.517,0.28,4.629,1.317
			c1.011,0.886,1.467,2.302,1.467,3.744c0,1.847-0.557,3.138-1.442,4.099c-1.063,1.111-2.783,1.619-4.149,1.619
			c-0.228,0-0.455,0-0.658,0v6.349h-3.314V98.873z M126.289,106.615c0.152,0.051,0.328,0.051,0.531,0.051
			c1.671,0,2.429-1.19,2.429-2.784c0-1.491-0.607-2.654-2.15-2.654c-0.303,0-0.607,0.049-0.81,0.125V106.615z"/>
		<path fill="#BAB8B8" d="M136.686,111.776l-0.759,3.896h-3.212l3.693-17.052h3.972l3.314,17.052h-3.212l-0.734-3.896H136.686z
			 M139.443,109.195l-0.556-3.567c-0.178-1.037-0.405-2.732-0.557-3.871h-0.077c-0.176,1.138-0.43,2.909-0.607,3.895l-0.633,3.542
			H139.443z"/>
		<path fill="#BAB8B8" d="M146.653,101.682h-3.011V98.62h9.361v3.062h-3.036v13.99h-3.314V101.682z"/>
		<path fill="#BAB8B8" d="M158.566,98.62v6.832h3.467V98.62h3.314v17.052h-3.314v-7.134h-3.467v7.134h-3.314V98.62H158.566z"/>
		<path fill="#BAB8B8" d="M172.101,98.62v17.052h-3.314V98.62H172.101z"/>
		<path fill="#BAB8B8" d="M182.775,108.185h-3.895v4.603h4.402v2.885h-7.716V98.62h7.412v2.885h-4.098v3.92h3.895V108.185z"/>
	</g>
	<g>
		<path fill="#C8C6C5" d="M58.923,188.777c-0.887,0.42-2.616,0.747-4.765,0.747c-8.033,0-11.863-6.633-11.863-15.553
			c0-11.863,6.585-16.487,12.704-16.487c2.149,0,3.644,0.42,4.251,0.84l-1.028,5.139c-0.701-0.326-1.495-0.607-2.849-0.607
			c-3.458,0-6.585,2.988-6.585,10.789c0,7.52,2.848,10.461,6.585,10.461c1.027,0,2.195-0.231,2.942-0.465L58.923,188.777z"/>
		<path fill="#C8C6C5" d="M69.102,157.763v20.459c0,4.623,1.402,6.023,2.989,6.023c1.775,0,3.035-1.26,3.035-6.023v-20.459h6.12
			v19.384c0,8.08-3.037,12.472-9.108,12.472c-6.586,0-9.155-4.531-9.155-12.424v-19.432H69.102z"/>
		<path fill="#C8C6C5" d="M87.408,158.231c1.915-0.372,4.345-0.606,6.679-0.606c3.363,0,6.353,0.466,8.408,2.336
			c1.915,1.727,2.475,3.829,2.475,6.537c0,3.363-1.635,6.4-4.857,7.894v0.093c2.149,0.842,3.222,2.852,3.829,6.212
			c0.607,3.505,1.448,7.382,2.009,8.548h-6.399c-0.374-0.888-1.075-4.063-1.542-7.52c-0.561-3.924-1.542-5.045-3.597-5.045h-0.886
			v12.564h-6.12V158.231z M93.528,171.962h1.074c2.662,0,4.203-2.146,4.203-4.904c0-2.662-1.074-4.576-3.83-4.669
			c-0.513,0-1.12,0.045-1.446,0.186V171.962z"/>
		<path fill="#C8C6C5" d="M116.366,157.763v31.48h-6.119v-31.48H116.366z"/>
		<path fill="#C8C6C5" d="M141.304,172.943c0,11.864-4.203,16.676-10.182,16.676c-7.146,0-9.947-7.567-9.947-16.208
			c0-8.593,3.409-16.02,10.368-16.02C139.156,157.391,141.304,165.75,141.304,172.943z M127.526,173.503
			c0,7.147,1.354,10.79,3.831,10.79c2.568,0,3.55-4.671,3.55-11.069c0-5.513-0.842-10.509-3.597-10.509
			C128.881,162.715,127.526,166.731,127.526,173.503z"/>
		<path fill="#C8C6C5" d="M145.365,182.986c1.262,0.7,3.409,1.215,5.184,1.215c2.896,0,4.297-1.496,4.297-3.55
			c0-2.29-1.401-3.411-4.063-5.138c-4.296-2.615-5.931-5.932-5.931-8.782c0-5.044,3.362-9.247,9.947-9.247
			c2.055,0,4.018,0.561,4.951,1.121l-0.98,5.277c-0.887-0.561-2.243-1.074-4.018-1.074c-2.616,0-3.876,1.588-3.876,3.27
			c0,1.867,0.934,2.85,4.344,4.904c4.157,2.521,5.698,5.697,5.698,9.016c0,5.744-4.25,9.526-10.416,9.526
			c-2.523,0-4.998-0.654-6.024-1.26L145.365,182.986z"/>
		<path fill="#C8C6C5" d="M171.426,157.763v31.48h-6.119v-31.48H171.426z"/>
		<path fill="#C8C6C5" d="M181.186,163.416h-5.558v-5.652h17.282v5.652h-5.605v25.828h-6.119V163.416z"/>
		<path fill="#C8C6C5" d="M210.328,175.419h-7.192v8.5h8.127v5.324h-14.247v-31.48h13.686v5.325h-7.566v7.239h7.192V175.419z
			 M211.309,150.804l-5.698,5.279h-4.391l3.877-5.279H211.309z"/>
	</g>
	<g>
		<g>
			<path fill="#BAB8B8" d="M7.407,25.681L5.993,33.17H0L6.889,0.389h7.408l6.18,32.781h-5.992l-1.368-7.489H7.407z M12.55,20.719
				l-1.038-6.858c-0.33-1.993-0.754-5.253-1.038-7.441h-0.142c-0.331,2.188-0.802,5.594-1.132,7.491l-1.179,6.809H12.55z"/>
		</g>
		<path fill="#BAB8B8" d="M30.152,0.389v21.303c0,4.815,1.416,6.273,3.02,6.273c1.793,0,3.067-1.313,3.067-6.273V0.389h6.182v20.183
			c0,8.415-3.067,12.987-9.201,12.987c-6.653,0-9.248-4.718-9.248-12.937V0.389H30.152z"/>
		<path fill="#BAB8B8" d="M52.143,6.274h-5.614V0.389h17.457v5.885h-5.661V33.17h-6.182V6.274z"/>
		<path fill="#BAB8B8" d="M86.352,16.196c0,12.354-4.246,17.363-10.286,17.363c-7.217,0-10.049-7.878-10.049-16.876
			C66.016,7.732,69.46,0,76.491,0C84.181,0,86.352,8.706,86.352,16.196z M72.434,16.78c0,7.441,1.368,11.234,3.868,11.234
			c2.596,0,3.586-4.863,3.586-11.527c0-5.739-0.849-10.942-3.632-10.942C73.801,5.545,72.434,9.728,72.434,16.78z"/>
		<path fill="#BAB8B8" d="M91.214,33.17V0.389h5.662l4.907,12.84c0.943,2.528,2.5,6.76,3.396,9.582h0.095
			c-0.188-3.455-0.614-9.144-0.614-15.176V0.389h5.427V33.17h-5.662l-4.859-12.451c-1.039-2.772-2.501-6.906-3.208-9.874h-0.095
			c0.142,3.308,0.377,8.367,0.377,14.933v7.392H91.214z"/>
		<path fill="#BAB8B8" d="M135.285,16.196c0,12.354-4.247,17.363-10.285,17.363c-7.219,0-10.051-7.878-10.051-16.876
			C114.95,7.732,118.395,0,125.425,0C133.115,0,135.285,8.706,135.285,16.196z M121.367,16.78c0,7.441,1.369,11.234,3.869,11.234
			c2.595,0,3.585-4.863,3.585-11.527c0-5.739-0.849-10.942-3.632-10.942C122.736,5.545,121.367,9.728,121.367,16.78z"/>
		<path fill="#BAB8B8" d="M159.587,21.692c-0.142-3.113-0.377-7.345-0.283-10.847h-0.142c-0.566,3.502-1.416,7.538-2.029,10.067
			l-2.737,11.722h-4.388l-2.642-11.526c-0.613-2.626-1.463-6.711-1.934-10.263h-0.142c-0.095,3.552-0.283,7.685-0.472,10.943
			l-0.518,11.381h-5.332l2.312-32.781h6.511l2.548,11.868c0.897,4.133,1.699,7.782,2.265,11.478h0.095
			c0.471-3.649,1.179-7.345,2.029-11.478l2.501-11.868h6.51l1.935,32.781h-5.521L159.587,21.692z"/>
		<path fill="#BAB8B8" d="M177.332,0.389V33.17h-6.181V0.389H177.332z"/>
		<path fill="#BAB8B8" d="M197.243,18.773h-7.266v8.852h8.209v5.545h-14.389V0.389h13.823v5.543h-7.643v7.541h7.266V18.773z"/>
	</g>
</g>
</svg>
